<?xml version="1.0" encoding="UTF-8"?>
<svg version="1.1" xmlns="http://www.w3.org/2000/svg" width="254" height="160">
<path d="M0 0 C83.82 0 167.64 0 254 0 C254 52.8 254 105.6 254 160 C170.18 160 86.36 160 0 160 C0 107.2 0 54.4 0 0 Z " fill="none" transform="translate(0,0)"/>
<path d="M0 0 C1.32 0 2.64 0 4 0 C4 1.32 4 2.64 4 4 C4.66 4 5.32 4 6 4 C6 5.32 6 6.64 6 8 C6.66 8 7.32 8 8 8 C8 9.32 8 10.64 8 12 C8.66 12 9.32 12 10 12 C10 12.66 10 13.32 10 14 C10.66 14 11.32 14 12 14 C12 14.66 12 15.32 12 16 C12.66 16 13.32 16 14 16 C14 16.66 14 17.32 14 18 C14.66 18 15.32 18 16 18 C16 18.66 16 19.32 16 20 C17.32 20 18.64 20 20 20 C20 20.66 20 21.32 20 22 C20.66 22 21.32 22 22 22 C22 22.66 22 23.32 22 24 C22.66 24 23.32 24 24 24 C24 25.98 24 27.96 24 30 C24.66 30 25.32 30 26 30 C26 30.66 26 31.32 26 32 C26.66 32 27.32 32 28 32 C28 32.66 28 33.32 28 34 C29.32 34 30.64 34 32 34 C32 33.34 32 32.68 32 32 C33.32 32 34.64 32 36 32 C36 31.34 36 30.68 36 30 C37.98 30 39.96 30 42 30 C42 29.34 42 28.68 42 28 C44.64 28 47.28 28 50 28 C50 27.34 50 26.68 50 26 C61.22 26 72.44 26 84 26 C84 26.66 84 27.32 84 28 C84.66 28 85.32 28 86 28 C86 28.66 86 29.32 86 30 C87.32 30 88.64 30 90 30 C90 30.66 90 31.32 90 32 C92.64 32 95.28 32 98 32 C98 30.02 98 28.04 98 26 C98.66 26 99.32 26 100 26 C100 24.68 100 23.36 100 22 C100.66 22 101.32 22 102 22 C102 20.02 102 18.04 102 16 C102.66 16 103.32 16 104 16 C104 14.02 104 12.04 104 10 C104.66 10 105.32 10 106 10 C106 8.68 106 7.36 106 6 C106.66 6 107.32 6 108 6 C108 4.68 108 3.36 108 2 C109.98 2 111.96 2 114 2 C114 3.32 114 4.64 114 6 C114.66 6 115.32 6 116 6 C116 7.98 116 9.96 116 12 C116.66 12 117.32 12 118 12 C118 13.32 118 14.64 118 16 C118.66 16 119.32 16 120 16 C120 16.66 120 17.32 120 18 C120.66 18 121.32 18 122 18 C122 19.32 122 20.64 122 22 C122.66 22 123.32 22 124 22 C124 22.66 124 23.32 124 24 C124.66 24 125.32 24 126 24 C126 24.66 126 25.32 126 26 C126.66 26 127.32 26 128 26 C128 26.66 128 27.32 128 28 C128.66 28 129.32 28 130 28 C130 28.66 130 29.32 130 30 C130.66 30 131.32 30 132 30 C132 31.32 132 32.64 132 34 C132.66 34 133.32 34 134 34 C134 35.32 134 36.64 134 38 C134.66 38 135.32 38 136 38 C136 39.32 136 40.64 136 42 C136.66 42 137.32 42 138 42 C138 45.96 138 49.92 138 54 C139.32 54 140.64 54 142 54 C142 54.66 142 55.32 142 56 C140.68 56 139.36 56 138 56 C138 59.3 138 62.6 138 66 C139.32 66 140.64 66 142 66 C142 66.66 142 67.32 142 68 C141.34 68 140.68 68 140 68 C140 68.66 140 69.32 140 70 C138.68 70 137.36 70 136 70 C136 74.62 136 79.24 136 84 C137.32 84 138.64 84 140 84 C140 84.66 140 85.32 140 86 C138.68 86 137.36 86 136 86 C136 88.64 136 91.28 136 94 C135.34 94 134.68 94 134 94 C134 95.32 134 96.64 134 98 C133.34 98 132.68 98 132 98 C132 98.66 132 99.32 132 100 C131.34 100 130.68 100 130 100 C130 100.66 130 101.32 130 102 C126.7 102 123.4 102 120 102 C120 102.66 120 103.32 120 104 C118.68 104 117.36 104 116 104 C116 104.66 116 105.32 116 106 C115.34 106 114.68 106 114 106 C114 106.66 114 107.32 114 108 C112.02 108 110.04 108 108 108 C108 108.66 108 109.32 108 110 C103.38 110 98.76 110 94 110 C94 110.66 94 111.32 94 112 C91.36 112 88.72 112 86 112 C86 112.66 86 113.32 86 114 C82.7 114 79.4 114 76 114 C76 113.34 76 112.68 76 112 C72.7 112 69.4 112 66 112 C66 111.34 66 110.68 66 110 C65.34 110 64.68 110 64 110 C64 110.66 64 111.32 64 112 C61.36 112 58.72 112 56 112 C56 112.66 56 113.32 56 114 C54.68 114 53.36 114 52 114 C52 113.34 52 112.68 52 112 C46.72 112 41.44 112 36 112 C36 111.34 36 110.68 36 110 C33.36 110 30.72 110 28 110 C28 109.34 28 108.68 28 108 C26.68 108 25.36 108 24 108 C24 107.34 24 106.68 24 106 C22.68 106 21.36 106 20 106 C20 105.34 20 104.68 20 104 C19.34 104 18.68 104 18 104 C18 103.34 18 102.68 18 102 C17.34 102 16.68 102 16 102 C16 101.34 16 100.68 16 100 C15.34 100 14.68 100 14 100 C14 99.34 14 98.68 14 98 C12.68 98 11.36 98 10 98 C10 97.34 10 96.68 10 96 C7.36 96 4.72 96 2 96 C2 95.34 2 94.68 2 94 C3.98 94 5.96 94 8 94 C8 93.34 8 92.68 8 92 C7.34 92 6.68 92 6 92 C6 91.34 6 90.68 6 90 C5.34 90 4.68 90 4 90 C4 88.68 4 87.36 4 86 C3.34 86 2.68 86 2 86 C2 84.68 2 83.36 2 82 C-1.3 82 -4.6 82 -8 82 C-8 81.34 -8 80.68 -8 80 C-6.02 80 -4.04 80 -2 80 C-2 78.68 -2 77.36 -2 76 C-2.66 76 -3.32 76 -4 76 C-4 74.68 -4 73.36 -4 72 C-11.26 72 -18.52 72 -26 72 C-26 71.34 -26 70.68 -26 70 C-19.4 70 -12.8 70 -6 70 C-6 60.76 -6 51.52 -6 42 C-5.34 42 -4.68 42 -4 42 C-4 33.42 -4 24.84 -4 16 C-3.34 16 -2.68 16 -2 16 C-2 12.7 -2 9.4 -2 6 C-1.34 6 -0.68 6 0 6 C0 4.02 0 2.04 0 0 Z " fill="#777777" transform="translate(58,22)"/>
<path d="M0 0 C0.66 0 1.32 0 2 0 C2 1.32 2 2.64 2 4 C2.66 4 3.32 4 4 4 C4 7.96 4 11.92 4 16 C5.32 16 6.64 16 8 16 C8 16.66 8 17.32 8 18 C6.68 18 5.36 18 4 18 C4 21.3 4 24.6 4 28 C5.32 28 6.64 28 8 28 C8 28.66 8 29.32 8 30 C7.34 30 6.68 30 6 30 C6 30.66 6 31.32 6 32 C4.68 32 3.36 32 2 32 C2 36.62 2 41.24 2 46 C3.32 46 4.64 46 6 46 C6 46.66 6 47.32 6 48 C4.68 48 3.36 48 2 48 C2 50.64 2 53.28 2 56 C1.34 56 0.68 56 0 56 C0 57.32 0 58.64 0 60 C-0.66 60 -1.32 60 -2 60 C-2 60.66 -2 61.32 -2 62 C-2.66 62 -3.32 62 -4 62 C-4 62.66 -4 63.32 -4 64 C-7.3 64 -10.6 64 -14 64 C-14 64.66 -14 65.32 -14 66 C-15.32 66 -16.64 66 -18 66 C-18 66.66 -18 67.32 -18 68 C-18.66 68 -19.32 68 -20 68 C-20 68.66 -20 69.32 -20 70 C-21.98 70 -23.96 70 -26 70 C-26 70.66 -26 71.32 -26 72 C-30.62 72 -35.24 72 -40 72 C-40 72.66 -40 73.32 -40 74 C-42.64 74 -45.28 74 -48 74 C-48 74.66 -48 75.32 -48 76 C-51.3 76 -54.6 76 -58 76 C-58 75.34 -58 74.68 -58 74 C-61.3 74 -64.6 74 -68 74 C-68 73.34 -68 72.68 -68 72 C-68.66 72 -69.32 72 -70 72 C-70 72.66 -70 73.32 -70 74 C-72.64 74 -75.28 74 -78 74 C-78 74.66 -78 75.32 -78 76 C-79.32 76 -80.64 76 -82 76 C-82 75.34 -82 74.68 -82 74 C-87.28 74 -92.56 74 -98 74 C-98 73.34 -98 72.68 -98 72 C-100.64 72 -103.28 72 -106 72 C-106 71.34 -106 70.68 -106 70 C-107.32 70 -108.64 70 -110 70 C-110 69.34 -110 68.68 -110 68 C-111.32 68 -112.64 68 -114 68 C-114 67.34 -114 66.68 -114 66 C-114.66 66 -115.32 66 -116 66 C-116 65.34 -116 64.68 -116 64 C-116.66 64 -117.32 64 -118 64 C-118 63.34 -118 62.68 -118 62 C-118.66 62 -119.32 62 -120 62 C-120 61.34 -120 60.68 -120 60 C-121.32 60 -122.64 60 -124 60 C-124 59.34 -124 58.68 -124 58 C-126.64 58 -129.28 58 -132 58 C-132 57.34 -132 56.68 -132 56 C-130.02 56 -128.04 56 -126 56 C-126 55.34 -126 54.68 -126 54 C-124.68 54 -123.36 54 -122 54 C-122 53.34 -122 52.68 -122 52 C-121.34 52 -120.68 52 -120 52 C-120 51.34 -120 50.68 -120 50 C-118.68 50 -117.36 50 -116 50 C-116 49.34 -116 48.68 -116 48 C-116.66 48 -117.32 48 -118 48 C-118 47.34 -118 46.68 -118 46 C-117.34 46 -116.68 46 -116 46 C-116 45.34 -116 44.68 -116 44 C-114.68 44 -113.36 44 -112 44 C-112 44.66 -112 45.32 -112 46 C-112.66 46 -113.32 46 -114 46 C-114 46.66 -114 47.32 -114 48 C-112.68 48 -111.36 48 -110 48 C-110 47.34 -110 46.68 -110 46 C-108.02 46 -106.04 46 -104 46 C-104 46.66 -104 47.32 -104 48 C-105.32 48 -106.64 48 -108 48 C-108 48.66 -108 49.32 -108 50 C-109.98 50 -111.96 50 -114 50 C-114 50.66 -114 51.32 -114 52 C-113.34 52 -112.68 52 -112 52 C-112 52.66 -112 53.32 -112 54 C-111.34 54 -110.68 54 -110 54 C-110 55.32 -110 56.64 -110 58 C-107.36 58 -104.72 58 -102 58 C-102 58.66 -102 59.32 -102 60 C-98.04 60 -94.08 60 -90 60 C-90 59.34 -90 58.68 -90 58 C-88.02 58 -86.04 58 -84 58 C-84 56.68 -84 55.36 -84 54 C-82.68 54 -81.36 54 -80 54 C-80 53.34 -80 52.68 -80 52 C-79.34 52 -78.68 52 -78 52 C-78 51.34 -78 50.68 -78 50 C-77.34 50 -76.68 50 -76 50 C-76 48.68 -76 47.36 -76 46 C-75.34 46 -74.68 46 -74 46 C-74 44.02 -74 42.04 -74 40 C-74.66 40 -75.32 40 -76 40 C-76 39.34 -76 38.68 -76 38 C-76.66 38 -77.32 38 -78 38 C-78 36.02 -78 34.04 -78 32 C-71.4 32 -64.8 32 -58 32 C-58 31.34 -58 30.68 -58 30 C-57.34 30 -56.68 30 -56 30 C-56 31.32 -56 32.64 -56 34 C-56.66 34 -57.32 34 -58 34 C-58 34.66 -58 35.32 -58 36 C-59.32 36 -60.64 36 -62 36 C-62 36.66 -62 37.32 -62 38 C-62.66 38 -63.32 38 -64 38 C-64 38.66 -64 39.32 -64 40 C-64.66 40 -65.32 40 -66 40 C-66 40.66 -66 41.32 -66 42 C-66.66 42 -67.32 42 -68 42 C-68 42.66 -68 43.32 -68 44 C-67.34 44 -66.68 44 -66 44 C-66 45.32 -66 46.64 -66 48 C-65.34 48 -64.68 48 -64 48 C-64 48.66 -64 49.32 -64 50 C-63.34 50 -62.68 50 -62 50 C-62 51.32 -62 52.64 -62 54 C-60.68 54 -59.36 54 -58 54 C-58 54.66 -58 55.32 -58 56 C-53.38 56 -48.76 56 -44 56 C-44 55.34 -44 54.68 -44 54 C-42.68 54 -41.36 54 -40 54 C-40 53.34 -40 52.68 -40 52 C-39.34 52 -38.68 52 -38 52 C-38 51.34 -38 50.68 -38 50 C-36.68 50 -35.36 50 -34 50 C-34 49.34 -34 48.68 -34 48 C-32.68 48 -31.36 48 -30 48 C-30 47.34 -30 46.68 -30 46 C-29.34 46 -28.68 46 -28 46 C-28 45.34 -28 44.68 -28 44 C-30.64 44 -33.28 44 -36 44 C-36 43.34 -36 42.68 -36 42 C-32.7 42 -29.4 42 -26 42 C-26 40.02 -26 38.04 -26 36 C-27.32 36 -28.64 36 -30 36 C-30 35.34 -30 34.68 -30 34 C-28.02 34 -26.04 34 -24 34 C-24 33.34 -24 32.68 -24 32 C-18.72 32 -13.44 32 -8 32 C-8 31.34 -8 30.68 -8 30 C-4.7 30 -1.4 30 2 30 C2 27.36 2 24.72 2 22 C-0.64 22 -3.28 22 -6 22 C-6 22.66 -6 23.32 -6 24 C-8.64 24 -11.28 24 -14 24 C-14 24.66 -14 25.32 -14 26 C-16.64 26 -19.28 26 -22 26 C-22 25.34 -22 24.68 -22 24 C-20.02 24 -18.04 24 -16 24 C-16 23.34 -16 22.68 -16 22 C-13.36 22 -10.72 22 -8 22 C-8 21.34 -8 20.68 -8 20 C-4.7 20 -1.4 20 2 20 C2 15.38 2 10.76 2 6 C1.34 6 0.68 6 0 6 C0 4.02 0 2.04 0 0 Z " fill="#747474" transform="translate(192,60)"/>
<path d="M0 0 C1.98 0 3.96 0 6 0 C6 1.32 6 2.64 6 4 C6.66 4 7.32 4 8 4 C8 5.98 8 7.96 8 10 C8.66 10 9.32 10 10 10 C10 11.32 10 12.64 10 14 C10.66 14 11.32 14 12 14 C12 14.66 12 15.32 12 16 C12.66 16 13.32 16 14 16 C14 17.32 14 18.64 14 20 C14.66 20 15.32 20 16 20 C16 20.66 16 21.32 16 22 C16.66 22 17.32 22 18 22 C18 22.66 18 23.32 18 24 C18.66 24 19.32 24 20 24 C20 24.66 20 25.32 20 26 C20.66 26 21.32 26 22 26 C22 26.66 22 27.32 22 28 C22.66 28 23.32 28 24 28 C24 29.32 24 30.64 24 32 C24.66 32 25.32 32 26 32 C26 35.3 26 38.6 26 42 C26.66 42 27.32 42 28 42 C28 46.62 28 51.24 28 56 C24.7 56 21.4 56 18 56 C18 56.66 18 57.32 18 58 C15.36 58 12.72 58 10 58 C10 58.66 10 59.32 10 60 C6.7 60 3.4 60 0 60 C0 59.34 0 58.68 0 58 C-1.32 58 -2.64 58 -4 58 C-4 58.66 -4 59.32 -4 60 C-5.32 60 -6.64 60 -8 60 C-8 60.66 -8 61.32 -8 62 C-11.96 62 -15.92 62 -20 62 C-20 61.34 -20 60.68 -20 60 C-18.02 60 -16.04 60 -14 60 C-14 59.34 -14 58.68 -14 58 C-14.66 58 -15.32 58 -16 58 C-16 53.38 -16 48.76 -16 44 C-16.66 44 -17.32 44 -18 44 C-18 44.66 -18 45.32 -18 46 C-18.66 46 -19.32 46 -20 46 C-20 46.66 -20 47.32 -20 48 C-20.66 48 -21.32 48 -22 48 C-22 48.66 -22 49.32 -22 50 C-22.66 50 -23.32 50 -24 50 C-24 51.98 -24 53.96 -24 56 C-23.34 56 -22.68 56 -22 56 C-22 56.66 -22 57.32 -22 58 C-23.32 58 -24.64 58 -26 58 C-26 54.7 -26 51.4 -26 48 C-27.98 48 -29.96 48 -32 48 C-32 46.68 -32 45.36 -32 44 C-31.34 44 -30.68 44 -30 44 C-30 43.34 -30 42.68 -30 42 C-29.34 42 -28.68 42 -28 42 C-28 40.68 -28 39.36 -28 38 C-27.34 38 -26.68 38 -26 38 C-26 37.34 -26 36.68 -26 36 C-24.68 36 -23.36 36 -22 36 C-22 35.34 -22 34.68 -22 34 C-20.02 34 -18.04 34 -16 34 C-16 33.34 -16 32.68 -16 32 C-16.66 32 -17.32 32 -18 32 C-18 31.34 -18 30.68 -18 30 C-15.36 30 -12.72 30 -10 30 C-10 28.02 -10 26.04 -10 24 C-9.34 24 -8.68 24 -8 24 C-8 22.68 -8 21.36 -8 20 C-7.34 20 -6.68 20 -6 20 C-6 18.02 -6 16.04 -6 14 C-5.34 14 -4.68 14 -4 14 C-4 12.02 -4 10.04 -4 8 C-3.34 8 -2.68 8 -2 8 C-2 6.68 -2 5.36 -2 4 C-1.34 4 -0.68 4 0 4 C0 2.68 0 1.36 0 0 Z " fill="#767676" transform="translate(166,24)"/>
<path d="M0 0 C3.3 0 6.6 0 10 0 C10 0.66 10 1.32 10 2 C11.98 2 13.96 2 16 2 C16 2.66 16 3.32 16 4 C17.32 4 18.64 4 20 4 C20 4.66 20 5.32 20 6 C20.66 6 21.32 6 22 6 C22 6.66 22 7.32 22 8 C23.32 8 24.64 8 26 8 C26 9.98 26 11.96 26 14 C25.34 14 24.68 14 24 14 C24 14.66 24 15.32 24 16 C23.34 16 22.68 16 22 16 C22 16.66 22 17.32 22 18 C21.34 18 20.68 18 20 18 C20 18.66 20 19.32 20 20 C13.4 20 6.8 20 0 20 C0 19.34 0 18.68 0 18 C-0.66 18 -1.32 18 -2 18 C-2 18.66 -2 19.32 -2 20 C-3.32 20 -4.64 20 -6 20 C-6 20.66 -6 21.32 -6 22 C-4.68 22 -3.36 22 -2 22 C-2 22.66 -2 23.32 -2 24 C-3.98 24 -5.96 24 -8 24 C-8 23.34 -8 22.68 -8 22 C-9.98 22 -11.96 22 -14 22 C-14 21.34 -14 20.68 -14 20 C-14.66 20 -15.32 20 -16 20 C-16 19.34 -16 18.68 -16 18 C-16.66 18 -17.32 18 -18 18 C-18 17.34 -18 16.68 -18 16 C-16.68 16 -15.36 16 -14 16 C-14 16.66 -14 17.32 -14 18 C-13.34 18 -12.68 18 -12 18 C-12 18.66 -12 19.32 -12 20 C-10.68 20 -9.36 20 -8 20 C-8 19.34 -8 18.68 -8 18 C-8.66 18 -9.32 18 -10 18 C-10 16.68 -10 15.36 -10 14 C-9.34 14 -8.68 14 -8 14 C-8 14.66 -8 15.32 -8 16 C-7.34 16 -6.68 16 -6 16 C-6 13.36 -6 10.72 -6 8 C-5.34 8 -4.68 8 -4 8 C-4 7.34 -4 6.68 -4 6 C-3.34 6 -2.68 6 -2 6 C-2 4.68 -2 3.36 -2 2 C-1.34 2 -0.68 2 0 2 C0 1.34 0 0.68 0 0 Z " fill="#000000" transform="translate(78,68)"/>
<path d="M0 0 C2.64 0 5.28 0 8 0 C8 0.66 8 1.32 8 2 C7.34 2 6.68 2 6 2 C6 2.66 6 3.32 6 4 C5.34 4 4.68 4 4 4 C4 4.66 4 5.32 4 6 C3.34 6 2.68 6 2 6 C2 6.66 2 7.32 2 8 C1.34 8 0.68 8 0 8 C0 8.66 0 9.32 0 10 C4.62 10 9.24 10 14 10 C14 10.66 14 11.32 14 12 C14.66 12 15.32 12 16 12 C16 12.66 16 13.32 16 14 C16.66 14 17.32 14 18 14 C18 14.66 18 15.32 18 16 C18.66 16 19.32 16 20 16 C20 17.32 20 18.64 20 20 C20.66 20 21.32 20 22 20 C22 21.98 22 23.96 22 26 C20.68 26 19.36 26 18 26 C18 26.66 18 27.32 18 28 C16.68 28 15.36 28 14 28 C14 28.66 14 29.32 14 30 C12.68 30 11.36 30 10 30 C10 30.66 10 31.32 10 32 C6.04 32 2.08 32 -2 32 C-2 31.34 -2 30.68 -2 30 C-0.02 30 1.96 30 4 30 C4 29.34 4 28.68 4 28 C3.34 28 2.68 28 2 28 C2 23.38 2 18.76 2 14 C1.34 14 0.68 14 0 14 C0 14.66 0 15.32 0 16 C-0.66 16 -1.32 16 -2 16 C-2 16.66 -2 17.32 -2 18 C-2.66 18 -3.32 18 -4 18 C-4 18.66 -4 19.32 -4 20 C-4.66 20 -5.32 20 -6 20 C-6 21.98 -6 23.96 -6 26 C-5.34 26 -4.68 26 -4 26 C-4 26.66 -4 27.32 -4 28 C-5.32 28 -6.64 28 -8 28 C-8 24.7 -8 21.4 -8 18 C-9.98 18 -11.96 18 -14 18 C-14 16.68 -14 15.36 -14 14 C-13.34 14 -12.68 14 -12 14 C-12 13.34 -12 12.68 -12 12 C-11.34 12 -10.68 12 -10 12 C-10 10.68 -10 9.36 -10 8 C-9.34 8 -8.68 8 -8 8 C-8 7.34 -8 6.68 -8 6 C-6.68 6 -5.36 6 -4 6 C-4 5.34 -4 4.68 -4 4 C-2.02 4 -0.04 4 2 4 C2 3.34 2 2.68 2 2 C1.34 2 0.68 2 0 2 C0 1.34 0 0.68 0 0 Z " fill="#000000" transform="translate(148,54)"/>
<path d="M0 0 C0.66 0 1.32 0 2 0 C2 1.32 2 2.64 2 4 C1.34 4 0.68 4 0 4 C0 4.66 0 5.32 0 6 C-1.32 6 -2.64 6 -4 6 C-4 6.66 -4 7.32 -4 8 C-4.66 8 -5.32 8 -6 8 C-6 8.66 -6 9.32 -6 10 C-6.66 10 -7.32 10 -8 10 C-8 10.66 -8 11.32 -8 12 C-8.66 12 -9.32 12 -10 12 C-10 12.66 -10 13.32 -10 14 C-9.34 14 -8.68 14 -8 14 C-8 15.32 -8 16.64 -8 18 C-7.34 18 -6.68 18 -6 18 C-6 18.66 -6 19.32 -6 20 C-5.34 20 -4.68 20 -4 20 C-4 21.32 -4 22.64 -4 24 C-2.68 24 -1.36 24 0 24 C0 24.66 0 25.32 0 26 C-0.66 26 -1.32 26 -2 26 C-2 27.32 -2 28.64 -2 30 C-2.66 30 -3.32 30 -4 30 C-4 30.66 -4 31.32 -4 32 C-7.96 32 -11.92 32 -16 32 C-16 31.34 -16 30.68 -16 30 C-17.32 30 -18.64 30 -20 30 C-20 29.34 -20 28.68 -20 28 C-21.32 28 -22.64 28 -24 28 C-24 27.34 -24 26.68 -24 26 C-24.66 26 -25.32 26 -26 26 C-26 25.34 -26 24.68 -26 24 C-24.68 24 -23.36 24 -22 24 C-22 23.34 -22 22.68 -22 22 C-21.34 22 -20.68 22 -20 22 C-20 21.34 -20 20.68 -20 20 C-19.34 20 -18.68 20 -18 20 C-18 18.68 -18 17.36 -18 16 C-17.34 16 -16.68 16 -16 16 C-16 14.02 -16 12.04 -16 10 C-16.66 10 -17.32 10 -18 10 C-18 9.34 -18 8.68 -18 8 C-18.66 8 -19.32 8 -20 8 C-20 6.02 -20 4.04 -20 2 C-13.4 2 -6.8 2 0 2 C0 1.34 0 0.68 0 0 Z " fill="#444444" transform="translate(134,90)"/>
<path d="M0 0 C2.64 0 5.28 0 8 0 C8 4.62 8 9.24 8 14 C6.02 14 4.04 14 2 14 C2 13.34 2 12.68 2 12 C-1.96 12 -5.92 12 -10 12 C-10 11.34 -10 10.68 -10 10 C-11.98 10 -13.96 10 -16 10 C-16 8.02 -16 6.04 -16 4 C-15.34 4 -14.68 4 -14 4 C-14 3.34 -14 2.68 -14 2 C-9.38 2 -4.76 2 0 2 C0 1.34 0 0.68 0 0 Z " fill="#7F7F7F" transform="translate(184,92)"/>
<path d="M0 0 C0.66 0 1.32 0 2 0 C2 1.32 2 2.64 2 4 C2.66 4 3.32 4 4 4 C4 7.96 4 11.92 4 16 C5.32 16 6.64 16 8 16 C8 16.66 8 17.32 8 18 C6.68 18 5.36 18 4 18 C4 21.3 4 24.6 4 28 C5.32 28 6.64 28 8 28 C8 28.66 8 29.32 8 30 C7.34 30 6.68 30 6 30 C6 30.66 6 31.32 6 32 C4.68 32 3.36 32 2 32 C2 36.62 2 41.24 2 46 C3.32 46 4.64 46 6 46 C6 46.66 6 47.32 6 48 C4.68 48 3.36 48 2 48 C2 50.64 2 53.28 2 56 C1.34 56 0.68 56 0 56 C0 53.36 0 50.72 0 48 C-1.98 48 -3.96 48 -6 48 C-6 47.34 -6 46.68 -6 46 C-4.02 46 -2.04 46 0 46 C0 41.38 0 36.76 0 32 C-2.64 32 -5.28 32 -8 32 C-8 31.34 -8 30.68 -8 30 C-4.7 30 -1.4 30 2 30 C2 27.36 2 24.72 2 22 C-0.64 22 -3.28 22 -6 22 C-6 22.66 -6 23.32 -6 24 C-8.64 24 -11.28 24 -14 24 C-14 24.66 -14 25.32 -14 26 C-16.64 26 -19.28 26 -22 26 C-22 25.34 -22 24.68 -22 24 C-20.02 24 -18.04 24 -16 24 C-16 23.34 -16 22.68 -16 22 C-13.36 22 -10.72 22 -8 22 C-8 21.34 -8 20.68 -8 20 C-4.7 20 -1.4 20 2 20 C2 15.38 2 10.76 2 6 C1.34 6 0.68 6 0 6 C0 4.02 0 2.04 0 0 Z " fill="#000000" transform="translate(192,60)"/>
<path d="M0 0 C0.66 0 1.32 0 2 0 C2 1.32 2 2.64 2 4 C1.34 4 0.68 4 0 4 C0 4.66 0 5.32 0 6 C-1.32 6 -2.64 6 -4 6 C-4 6.66 -4 7.32 -4 8 C-4.66 8 -5.32 8 -6 8 C-6 8.66 -6 9.32 -6 10 C-6.66 10 -7.32 10 -8 10 C-8 10.66 -8 11.32 -8 12 C-8.66 12 -9.32 12 -10 12 C-10 12.66 -10 13.32 -10 14 C-11.32 14 -12.64 14 -14 14 C-14 15.32 -14 16.64 -14 18 C-14.66 18 -15.32 18 -16 18 C-16 18.66 -16 19.32 -16 20 C-16.66 20 -17.32 20 -18 20 C-18 18.68 -18 17.36 -18 16 C-17.34 16 -16.68 16 -16 16 C-16 14.02 -16 12.04 -16 10 C-16.66 10 -17.32 10 -18 10 C-18 9.34 -18 8.68 -18 8 C-18.66 8 -19.32 8 -20 8 C-20 6.02 -20 4.04 -20 2 C-13.4 2 -6.8 2 0 2 C0 1.34 0 0.68 0 0 Z " fill="#000000" transform="translate(134,90)"/>
<path d="M0 0 C0.66 0 1.32 0 2 0 C2 0.66 2 1.32 2 2 C2.66 2 3.32 2 4 2 C4 3.32 4 4.64 4 6 C4.66 6 5.32 6 6 6 C6 6.66 6 7.32 6 8 C6.66 8 7.32 8 8 8 C8 8.66 8 9.32 8 10 C8.66 10 9.32 10 10 10 C10 10.66 10 11.32 10 12 C10.66 12 11.32 12 12 12 C12 12.66 12 13.32 12 14 C12.66 14 13.32 14 14 14 C14 12.68 14 11.36 14 10 C14.66 10 15.32 10 16 10 C16 10.66 16 11.32 16 12 C16.66 12 17.32 12 18 12 C18 12.66 18 13.32 18 14 C18.66 14 19.32 14 20 14 C20 14.66 20 15.32 20 16 C20.66 16 21.32 16 22 16 C22 17.32 22 18.64 22 20 C21.34 20 20.68 20 20 20 C20 20.66 20 21.32 20 22 C19.34 22 18.68 22 18 22 C18 21.34 18 20.68 18 20 C17.34 20 16.68 20 16 20 C16 19.34 16 18.68 16 18 C14.68 18 13.36 18 12 18 C12 17.34 12 16.68 12 16 C10.02 16 8.04 16 6 16 C6 15.34 6 14.68 6 14 C5.34 14 4.68 14 4 14 C4 12.68 4 11.36 4 10 C2.68 10 1.36 10 0 10 C0 10.66 0 11.32 0 12 C-0.66 12 -1.32 12 -2 12 C-2 13.98 -2 15.96 -2 18 C-2.66 18 -3.32 18 -4 18 C-4 14.7 -4 11.4 -4 8 C-3.34 8 -2.68 8 -2 8 C-2 6.68 -2 5.36 -2 4 C-1.34 4 -0.68 4 0 4 C0 2.68 0 1.36 0 0 Z " fill="#4E4E4E" transform="translate(168,36)"/>
<path d="M0 0 C0.66 0 1.32 0 2 0 C2 7.92 2 15.84 2 24 C2.66 24 3.32 24 4 24 C4 24.66 4 25.32 4 26 C3.34 26 2.68 26 2 26 C2 26.66 2 27.32 2 28 C1.34 28 0.68 28 0 28 C0 37.24 0 46.48 0 56 C-7.26 56 -14.52 56 -22 56 C-22 55.34 -22 54.68 -22 54 C-15.4 54 -8.8 54 -2 54 C-2 44.76 -2 35.52 -2 26 C-1.34 26 -0.68 26 0 26 C0 17.42 0 8.84 0 0 Z " fill="#000000" transform="translate(54,38)"/>
<path d="M0 0 C2.64 0 5.28 0 8 0 C8 0.66 8 1.32 8 2 C7.34 2 6.68 2 6 2 C6 2.66 6 3.32 6 4 C5.34 4 4.68 4 4 4 C4 4.66 4 5.32 4 6 C3.34 6 2.68 6 2 6 C2 6.66 2 7.32 2 8 C1.34 8 0.68 8 0 8 C0 9.32 0 10.64 0 12 C-0.66 12 -1.32 12 -2 12 C-2 12.66 -2 13.32 -2 14 C-2.66 14 -3.32 14 -4 14 C-4 14.66 -4 15.32 -4 16 C-4.66 16 -5.32 16 -6 16 C-6 16.66 -6 17.32 -6 18 C-8.64 18 -11.28 18 -14 18 C-14 16.68 -14 15.36 -14 14 C-13.34 14 -12.68 14 -12 14 C-12 13.34 -12 12.68 -12 12 C-11.34 12 -10.68 12 -10 12 C-10 10.68 -10 9.36 -10 8 C-9.34 8 -8.68 8 -8 8 C-8 7.34 -8 6.68 -8 6 C-6.68 6 -5.36 6 -4 6 C-4 5.34 -4 4.68 -4 4 C-2.02 4 -0.04 4 2 4 C2 3.34 2 2.68 2 2 C1.34 2 0.68 2 0 2 C0 1.34 0 0.68 0 0 Z " fill="#535353" transform="translate(148,54)"/>
<path d="M0 0 C5.28 0 10.56 0 16 0 C16 0.66 16 1.32 16 2 C11.38 2 6.76 2 2 2 C2 2.66 2 3.32 2 4 C1.34 4 0.68 4 0 4 C0 5.98 0 7.96 0 10 C1.98 10 3.96 10 6 10 C6 10.66 6 11.32 6 12 C3.36 12 0.72 12 -2 12 C-2 13.32 -2 14.64 -2 16 C-2.66 16 -3.32 16 -4 16 C-4 16.66 -4 17.32 -4 18 C-5.32 18 -6.64 18 -8 18 C-8 18.66 -8 19.32 -8 20 C-9.32 20 -10.64 20 -12 20 C-12 20.66 -12 21.32 -12 22 C-12.66 22 -13.32 22 -14 22 C-14 22.66 -14 23.32 -14 24 C-15.98 24 -17.96 24 -20 24 C-20 23.34 -20 22.68 -20 22 C-18.68 22 -17.36 22 -16 22 C-16 21.34 -16 20.68 -16 20 C-15.34 20 -14.68 20 -14 20 C-14 19.34 -14 18.68 -14 18 C-12.68 18 -11.36 18 -10 18 C-10 17.34 -10 16.68 -10 16 C-8.68 16 -7.36 16 -6 16 C-6 15.34 -6 14.68 -6 14 C-5.34 14 -4.68 14 -4 14 C-4 13.34 -4 12.68 -4 12 C-6.64 12 -9.28 12 -12 12 C-12 11.34 -12 10.68 -12 10 C-8.7 10 -5.4 10 -2 10 C-2 8.02 -2 6.04 -2 4 C-3.32 4 -4.64 4 -6 4 C-6 3.34 -6 2.68 -6 2 C-4.02 2 -2.04 2 0 2 C0 1.34 0 0.68 0 0 Z " fill="#000000" transform="translate(168,92)"/>
<path d="M0 0 C1.32 0 2.64 0 4 0 C4 0.66 4 1.32 4 2 C4.66 2 5.32 2 6 2 C6 3.32 6 4.64 6 6 C6.66 6 7.32 6 8 6 C8 6.66 8 7.32 8 8 C9.32 8 10.64 8 12 8 C12 8.66 12 9.32 12 10 C12.66 10 13.32 10 14 10 C14 10.66 14 11.32 14 12 C14.66 12 15.32 12 16 12 C16 12.66 16 13.32 16 14 C17.32 14 18.64 14 20 14 C20 15.32 20 16.64 20 18 C19.34 18 18.68 18 18 18 C18 17.34 18 16.68 18 16 C16.68 16 15.36 16 14 16 C14 15.34 14 14.68 14 14 C12.68 14 11.36 14 10 14 C10 13.34 10 12.68 10 12 C8.68 12 7.36 12 6 12 C6 11.34 6 10.68 6 10 C5.34 10 4.68 10 4 10 C4 11.32 4 12.64 4 14 C3.34 14 2.68 14 2 14 C2 15.98 2 17.96 2 20 C1.34 20 0.68 20 0 20 C0 13.4 0 6.8 0 0 Z " fill="#4D4D4D" transform="translate(60,40)"/>
<path d="M0 0 C5.28 0 10.56 0 16 0 C16 0.66 16 1.32 16 2 C17.98 2 19.96 2 22 2 C22 2.66 22 3.32 22 4 C23.98 4 25.96 4 28 4 C28 4.66 28 5.32 28 6 C29.32 6 30.64 6 32 6 C32 6.66 32 7.32 32 8 C32.66 8 33.32 8 34 8 C34 8.66 34 9.32 34 10 C32.02 10 30.04 10 28 10 C28 9.34 28 8.68 28 8 C26.68 8 25.36 8 24 8 C24 7.34 24 6.68 24 6 C22.02 6 20.04 6 18 6 C18 5.34 18 4.68 18 4 C12.72 4 7.44 4 2 4 C2 3.34 2 2.68 2 2 C1.34 2 0.68 2 0 2 C0 1.34 0 0.68 0 0 Z " fill="#4D4D4D" transform="translate(74,62)"/>
<path d="M0 0 C0.66 0 1.32 0 2 0 C2 4.62 2 9.24 2 14 C2.66 14 3.32 14 4 14 C4 14.66 4 15.32 4 16 C2.02 16 0.04 16 -2 16 C-2 15.34 -2 14.68 -2 14 C-2.66 14 -3.32 14 -4 14 C-4 13.34 -4 12.68 -4 12 C-4.66 12 -5.32 12 -6 12 C-6 10.02 -6 8.04 -6 6 C-5.34 6 -4.68 6 -4 6 C-4 5.34 -4 4.68 -4 4 C-3.34 4 -2.68 4 -2 4 C-2 3.34 -2 2.68 -2 2 C-1.34 2 -0.68 2 0 2 C0 1.34 0 0.68 0 0 Z " fill="#FFFFFF" transform="translate(148,68)"/>
<path d="M0 0 C0.66 0 1.32 0 2 0 C2 4.62 2 9.24 2 14 C2.66 14 3.32 14 4 14 C4 14.66 4 15.32 4 16 C2.68 16 1.36 16 0 16 C0 15.34 0 14.68 0 14 C-1.32 14 -2.64 14 -4 14 C-4 13.34 -4 12.68 -4 12 C-4.66 12 -5.32 12 -6 12 C-6 10.68 -6 9.36 -6 8 C-5.34 8 -4.68 8 -4 8 C-4 6.68 -4 5.36 -4 4 C-3.34 4 -2.68 4 -2 4 C-2 3.34 -2 2.68 -2 2 C-1.34 2 -0.68 2 0 2 C0 1.34 0 0.68 0 0 Z " fill="#FFFFFF" transform="translate(80,70)"/>
<path d="M0 0 C1.32 0 2.64 0 4 0 C4 0.66 4 1.32 4 2 C3.34 2 2.68 2 2 2 C2 2.66 2 3.32 2 4 C3.32 4 4.64 4 6 4 C6 3.34 6 2.68 6 2 C7.98 2 9.96 2 12 2 C12 2.66 12 3.32 12 4 C10.68 4 9.36 4 8 4 C8 4.66 8 5.32 8 6 C6.02 6 4.04 6 2 6 C2 6.66 2 7.32 2 8 C2.66 8 3.32 8 4 8 C4 8.66 4 9.32 4 10 C4.66 10 5.32 10 6 10 C6 10.66 6 11.32 6 12 C4.68 12 3.36 12 2 12 C2 11.34 2 10.68 2 10 C1.34 10 0.68 10 0 10 C0 9.34 0 8.68 0 8 C-0.66 8 -1.32 8 -2 8 C-2 8.66 -2 9.32 -2 10 C-3.32 10 -4.64 10 -6 10 C-6 9.34 -6 8.68 -6 8 C-5.34 8 -4.68 8 -4 8 C-4 7.34 -4 6.68 -4 6 C-2.68 6 -1.36 6 0 6 C0 5.34 0 4.68 0 4 C-0.66 4 -1.32 4 -2 4 C-2 3.34 -2 2.68 -2 2 C-1.34 2 -0.68 2 0 2 C0 1.34 0 0.68 0 0 Z " fill="#000000" transform="translate(76,104)"/>
<path d="M0 0 C0.66 0 1.32 0 2 0 C2 0.66 2 1.32 2 2 C2.66 2 3.32 2 4 2 C4 2.66 4 3.32 4 4 C4.66 4 5.32 4 6 4 C6 5.32 6 6.64 6 8 C6.66 8 7.32 8 8 8 C8 9.32 8 10.64 8 12 C7.34 12 6.68 12 6 12 C6 12.66 6 13.32 6 14 C4.68 14 3.36 14 2 14 C2 13.34 2 12.68 2 12 C1.34 12 0.68 12 0 12 C0 8.04 0 4.08 0 0 Z " fill="#F7CB47" transform="translate(84,70)"/>
<path d="M0 0 C0.66 0 1.32 0 2 0 C2 0.66 2 1.32 2 2 C2.66 2 3.32 2 4 2 C4 2.66 4 3.32 4 4 C4.66 4 5.32 4 6 4 C6 4.66 6 5.32 6 6 C6.66 6 7.32 6 8 6 C8 6.66 8 7.32 8 8 C8.66 8 9.32 8 10 8 C10 9.32 10 10.64 10 12 C8.68 12 7.36 12 6 12 C6 12.66 6 13.32 6 14 C4.68 14 3.36 14 2 14 C2 11.36 2 8.72 2 6 C1.34 6 0.68 6 0 6 C0 4.02 0 2.04 0 0 Z " fill="#FFFFFF" transform="translate(158,66)"/>
<path d="M0 0 C1.32 0 2.64 0 4 0 C4 1.98 4 3.96 4 6 C4.66 6 5.32 6 6 6 C6 8.64 6 11.28 6 14 C5.34 14 4.68 14 4 14 C4 14.66 4 15.32 4 16 C3.34 16 2.68 16 2 16 C2 15.34 2 14.68 2 14 C1.34 14 0.68 14 0 14 C0 9.38 0 4.76 0 0 Z " fill="#F7CB47" transform="translate(152,66)"/>
<path d="M0 0 C11.22 0 22.44 0 34 0 C34 0.66 34 1.32 34 2 C34.66 2 35.32 2 36 2 C36 2.66 36 3.32 36 4 C34.68 4 33.36 4 32 4 C32 3.34 32 2.68 32 2 C21.44 2 10.88 2 0 2 C0 1.34 0 0.68 0 0 Z " fill="#000000" transform="translate(108,48)"/>
<path d="M0 0 C1.98 0 3.96 0 6 0 C6 0.66 6 1.32 6 2 C9.3 2 12.6 2 16 2 C16 2.66 16 3.32 16 4 C18.64 4 21.28 4 24 4 C24 4.66 24 5.32 24 6 C20.7 6 17.4 6 14 6 C14 5.34 14 4.68 14 4 C10.7 4 7.4 4 4 4 C4 3.34 4 2.68 4 2 C3.34 2 2.68 2 2 2 C2 2.66 2 3.32 2 4 C-0.64 4 -3.28 4 -6 4 C-6 3.34 -6 2.68 -6 2 C-4.02 2 -2.04 2 0 2 C0 1.34 0 0.68 0 0 Z " fill="#000000" transform="translate(120,130)"/>
<path d="M0 0 C11.22 0 22.44 0 34 0 C34 0.66 34 1.32 34 2 C23.44 2 12.88 2 2 2 C2 2.66 2 3.32 2 4 C1.34 4 0.68 4 0 4 C0 2.68 0 1.36 0 0 Z " fill="#000000" transform="translate(54,94)"/>
<path d="M0 0 C0.66 0 1.32 0 2 0 C2 0.66 2 1.32 2 2 C3.32 2 4.64 2 6 2 C6 2.66 6 3.32 6 4 C6.66 4 7.32 4 8 4 C8 4.66 8 5.32 8 6 C6.68 6 5.36 6 4 6 C4 6.66 4 7.32 4 8 C5.32 8 6.64 8 8 8 C8 8.66 8 9.32 8 10 C6.02 10 4.04 10 2 10 C2 9.34 2 8.68 2 8 C0.02 8 -1.96 8 -4 8 C-4 7.34 -4 6.68 -4 6 C-4.66 6 -5.32 6 -6 6 C-6 5.34 -6 4.68 -6 4 C-6.66 4 -7.32 4 -8 4 C-8 3.34 -8 2.68 -8 2 C-6.68 2 -5.36 2 -4 2 C-4 2.66 -4 3.32 -4 4 C-3.34 4 -2.68 4 -2 4 C-2 4.66 -2 5.32 -2 6 C-0.68 6 0.64 6 2 6 C2 5.34 2 4.68 2 4 C1.34 4 0.68 4 0 4 C0 2.68 0 1.36 0 0 Z " fill="#4F4F4F" transform="translate(68,82)"/>
<path d="M0 0 C1.32 0 2.64 0 4 0 C4 0.66 4 1.32 4 2 C4.66 2 5.32 2 6 2 C6 2.66 6 3.32 6 4 C6.66 4 7.32 4 8 4 C8 5.32 8 6.64 8 8 C7.34 8 6.68 8 6 8 C6 8.66 6 9.32 6 10 C5.34 10 4.68 10 4 10 C4 10.66 4 11.32 4 12 C2.68 12 1.36 12 0 12 C0 10.68 0 9.36 0 8 C0.66 8 1.32 8 2 8 C2 6.02 2 4.04 2 2 C1.34 2 0.68 2 0 2 C0 1.34 0 0.68 0 0 Z " fill="#FFFFFF" transform="translate(92,74)"/>
<path d="M0 0 C0.66 0 1.32 0 2 0 C2 0.66 2 1.32 2 2 C2.66 2 3.32 2 4 2 C4 2.66 4 3.32 4 4 C5.98 4 7.96 4 10 4 C10 4.66 10 5.32 10 6 C8.68 6 7.36 6 6 6 C6 7.32 6 8.64 6 10 C5.34 10 4.68 10 4 10 C4 8.68 4 7.36 4 6 C0.7 6 -2.6 6 -6 6 C-6 5.34 -6 4.68 -6 4 C-4.02 4 -2.04 4 0 4 C0 2.68 0 1.36 0 0 Z " fill="#000000" transform="translate(56,98)"/>
<path d="M0 0 C3.96 0 7.92 0 12 0 C12 0.66 12 1.32 12 2 C11.34 2 10.68 2 10 2 C10 2.66 10 3.32 10 4 C9.34 4 8.68 4 8 4 C8 4.66 8 5.32 8 6 C7.34 6 6.68 6 6 6 C6 6.66 6 7.32 6 8 C5.34 8 4.68 8 4 8 C4 6.68 4 5.36 4 4 C3.34 4 2.68 4 2 4 C2 3.34 2 2.68 2 2 C1.34 2 0.68 2 0 2 C0 1.34 0 0.68 0 0 Z " fill="#F3B1C8" transform="translate(116,94)"/>
<path d="M0 0 C1.98 0 3.96 0 6 0 C6 1.32 6 2.64 6 4 C6.66 4 7.32 4 8 4 C8 5.98 8 7.96 8 10 C7.34 10 6.68 10 6 10 C6 8.68 6 7.36 6 6 C5.34 6 4.68 6 4 6 C4 4.68 4 3.36 4 2 C3.34 2 2.68 2 2 2 C2 3.32 2 4.64 2 6 C1.34 6 0.68 6 0 6 C0 6.66 0 7.32 0 8 C-0.66 8 -1.32 8 -2 8 C-2 6.68 -2 5.36 -2 4 C-1.34 4 -0.68 4 0 4 C0 2.68 0 1.36 0 0 Z " fill="#000000" transform="translate(166,24)"/>
<path d="M0 0 C5.94 0 11.88 0 18 0 C18 0.66 18 1.32 18 2 C18.66 2 19.32 2 20 2 C20 2.66 20 3.32 20 4 C18.68 4 17.36 4 16 4 C16 3.34 16 2.68 16 2 C10.72 2 5.44 2 0 2 C0 1.34 0 0.68 0 0 Z " fill="#000000" transform="translate(94,132)"/>
<path d="M0 0 C0.66 0 1.32 0 2 0 C2 1.32 2 2.64 2 4 C1.34 4 0.68 4 0 4 C0 4.66 0 5.32 0 6 C-0.66 6 -1.32 6 -2 6 C-2 6.66 -2 7.32 -2 8 C-5.3 8 -8.6 8 -12 8 C-12 7.34 -12 6.68 -12 6 C-9.36 6 -6.72 6 -4 6 C-4 5.34 -4 4.68 -4 4 C-3.34 4 -2.68 4 -2 4 C-2 3.34 -2 2.68 -2 2 C-1.34 2 -0.68 2 0 2 C0 1.34 0 0.68 0 0 Z " fill="#000000" transform="translate(190,116)"/>
<path d="M0 0 C1.32 0 2.64 0 4 0 C4 0.66 4 1.32 4 2 C3.34 2 2.68 2 2 2 C2 3.32 2 4.64 2 6 C1.34 6 0.68 6 0 6 C0 6.66 0 7.32 0 8 C-0.66 8 -1.32 8 -2 8 C-2 8.66 -2 9.32 -2 10 C-3.32 10 -4.64 10 -6 10 C-6 8.68 -6 7.36 -6 6 C-4.68 6 -3.36 6 -2 6 C-2 5.34 -2 4.68 -2 4 C-1.34 4 -0.68 4 0 4 C0 2.68 0 1.36 0 0 Z " fill="#525252" transform="translate(172,74)"/>
<path d="M0 0 C1.32 0 2.64 0 4 0 C4 1.32 4 2.64 4 4 C4.66 4 5.32 4 6 4 C6 4.66 6 5.32 6 6 C4.68 6 3.36 6 2 6 C2 5.34 2 4.68 2 4 C-0.64 4 -3.28 4 -6 4 C-6 3.34 -6 2.68 -6 2 C-4.02 2 -2.04 2 0 2 C0 1.34 0 0.68 0 0 Z " fill="#000000" transform="translate(66,114)"/>
<path d="M0 0 C0.66 0 1.32 0 2 0 C2 0.66 2 1.32 2 2 C2.66 2 3.32 2 4 2 C4 2.66 4 3.32 4 4 C4.66 4 5.32 4 6 4 C6 4.66 6 5.32 6 6 C6.66 6 7.32 6 8 6 C8 7.32 8 8.64 8 10 C7.34 10 6.68 10 6 10 C6 9.34 6 8.68 6 8 C5.34 8 4.68 8 4 8 C4 7.34 4 6.68 4 6 C3.34 6 2.68 6 2 6 C2 5.34 2 4.68 2 4 C1.34 4 0.68 4 0 4 C0 2.68 0 1.36 0 0 Z " fill="#000000" transform="translate(182,46)"/>
<path d="M0 0 C1.32 0 2.64 0 4 0 C4 1.32 4 2.64 4 4 C4.66 4 5.32 4 6 4 C6 5.32 6 6.64 6 8 C5.34 8 4.68 8 4 8 C4 7.34 4 6.68 4 6 C2.68 6 1.36 6 0 6 C0 4.02 0 2.04 0 0 Z " fill="#000000" transform="translate(58,22)"/>
<path d="M0 0 C0.66 0 1.32 0 2 0 C2 1.32 2 2.64 2 4 C2.66 4 3.32 4 4 4 C4 4.66 4 5.32 4 6 C4.66 6 5.32 6 6 6 C6 7.32 6 8.64 6 10 C5.34 10 4.68 10 4 10 C4 9.34 4 8.68 4 8 C3.34 8 2.68 8 2 8 C2 7.34 2 6.68 2 6 C1.34 6 0.68 6 0 6 C0 4.02 0 2.04 0 0 Z " fill="#000000" transform="translate(124,104)"/>
<path d="M0 0 C0.66 0 1.32 0 2 0 C2 0.66 2 1.32 2 2 C2.66 2 3.32 2 4 2 C4 2.66 4 3.32 4 4 C5.32 4 6.64 4 8 4 C8 4.66 8 5.32 8 6 C7.34 6 6.68 6 6 6 C6 6.66 6 7.32 6 8 C5.34 8 4.68 8 4 8 C4 7.34 4 6.68 4 6 C3.34 6 2.68 6 2 6 C2 5.34 2 4.68 2 4 C1.34 4 0.68 4 0 4 C0 2.68 0 1.36 0 0 Z " fill="#000000" transform="translate(82,52)"/>
<path d="M0 0 C1.32 0 2.64 0 4 0 C4 0.66 4 1.32 4 2 C4.66 2 5.32 2 6 2 C6 2.66 6 3.32 6 4 C6.66 4 7.32 4 8 4 C8 4.66 8 5.32 8 6 C6.68 6 5.36 6 4 6 C4 5.34 4 4.68 4 4 C3.34 4 2.68 4 2 4 C2 3.34 2 2.68 2 2 C1.34 2 0.68 2 0 2 C0 1.34 0 0.68 0 0 Z " fill="#000000" transform="translate(74,122)"/>
<path d="M0 0 C2.64 0 5.28 0 8 0 C8 0.66 8 1.32 8 2 C6.02 2 4.04 2 2 2 C2 2.66 2 3.32 2 4 C0.68 4 -0.64 4 -2 4 C-2 3.34 -2 2.68 -2 2 C-1.34 2 -0.68 2 0 2 C0 1.34 0 0.68 0 0 Z " fill="#000000" transform="translate(52,118)"/>
<path d="M0 0 C2.64 0 5.28 0 8 0 C8 0.66 8 1.32 8 2 C6.02 2 4.04 2 2 2 C2 2.66 2 3.32 2 4 C0.68 4 -0.64 4 -2 4 C-2 3.34 -2 2.68 -2 2 C-1.34 2 -0.68 2 0 2 C0 1.34 0 0.68 0 0 Z " fill="#000000" transform="translate(152,90)"/>
<path d="M0 0 C2.64 0 5.28 0 8 0 C8 0.66 8 1.32 8 2 C7.34 2 6.68 2 6 2 C6 2.66 6 3.32 6 4 C4.68 4 3.36 4 2 4 C2 3.34 2 2.68 2 2 C1.34 2 0.68 2 0 2 C0 1.34 0 0.68 0 0 Z " fill="#000000" transform="translate(148,54)"/>
<path d="M0 0 C1.98 0 3.96 0 6 0 C6 0.66 6 1.32 6 2 C4.68 2 3.36 2 2 2 C2 2.66 2 3.32 2 4 C0.02 4 -1.96 4 -4 4 C-4 3.34 -4 2.68 -4 2 C-2.68 2 -1.36 2 0 2 C0 1.34 0 0.68 0 0 Z " fill="#000000" transform="translate(94,52)"/>
<path d="M0 0 C0.66 0 1.32 0 2 0 C2 1.32 2 2.64 2 4 C1.34 4 0.68 4 0 4 C0 4.66 0 5.32 0 6 C-1.32 6 -2.64 6 -4 6 C-4 5.34 -4 4.68 -4 4 C-3.34 4 -2.68 4 -2 4 C-2 3.34 -2 2.68 -2 2 C-1.34 2 -0.68 2 0 2 C0 1.34 0 0.68 0 0 Z " fill="#4D4D4D" transform="translate(182,74)"/>
</svg>
