<svg xmlns="http://www.w3.org/2000/svg" viewBox="0 0 128 128">
  <rect width="128" height="128" fill="#060606" rx="24"/>
  <g transform="translate(64 64)">
    <path d="M0-42c-26.5 0-48 20.9-48 46.7 0 21.3 14.7 34.3 30.6 41.5 4.8 2.1 10.1 3.3 17.4 3.3s12.6-1.2 17.4-3.3C33.3 39 48 26 48 4.7 48-21.1 26.5-42 0-42z" fill="#59c36a"/>
    <circle cx="-22" cy="-18" r="14" fill="#fff"/>
    <circle cx="22" cy="-18" r="14" fill="#fff"/>
    <circle cx="-18" cy="-18" r="6" fill="#0f0f0f"/>
    <circle cx="18" cy="-18" r="6" fill="#0f0f0f"/>
    <path d="M-20 10c5-6 12-9 20-9s15 3 20 9" fill="none" stroke="#0f0f0f" stroke-width="6" stroke-linecap="round"/>
    <path d="M-26 20c6 6 16 9 26 9s20-3 26-9" fill="none" stroke="#0f0f0f" stroke-width="5" stroke-linecap="round"/>
  </g>
</svg>
